<svg viewBox="0 0 663 900" xmlns="http://www.w3.org/2000/svg" fill-rule="evenodd" clip-rule="evenodd" stroke-linejoin="round" stroke-miterlimit="1.414"><path d="M410.337 731.9c0-23.13-18.763-41.883-41.878-41.883H284.7c-23.116 0-41.88 18.754-41.88 41.883v116.704c0 23.13 18.764 41.884 41.88 41.884h83.758c23.115 0 41.878-18.754 41.878-41.884V731.9z" fill="#c7c7c7"/><path d="M497.58 767.153c0-8.879-7.207-16.09-16.086-16.09H175.67c-8.88 0-16.09 7.211-16.09 16.09v32.18c0 8.88 7.21 16.091 16.09 16.091h305.824c8.88 0 16.086-7.211 16.086-16.09v-32.18zM499.064 851.215c0-8.879-7.207-16.09-16.086-16.09H177.154c-8.88 0-16.09 7.211-16.09 16.09v32.18c0 8.88 7.21 16.091 16.09 16.091h305.824c8.88 0 16.086-7.211 16.086-16.09v-32.18z" fill="#a2a2a2"/><path d="M662.16 343c0-189.31-148.323-343-331.003-343h-.155C148.317 0 0 153.69 0 343v120C0 634.45 207.2 801.46 286.613 806c16.692.95 92.117 0 44.389 0h31.474C464.62 806 662.16 652.31 662.16 463V343z" fill="#ffce37"/><path d="M662.162 460C519.676 357.61 518.769 634 417.046 634H260.558C158.828 634 125.892 334.51.002 450c-.447 103.3 109.484 356 286.611 356H388.53c174.187 0 274.221-256.53 273.633-346z" fill="#ffaa37"/><path d="M294.266 346.18c0-18.83-15.296-34.123-34.118-34.123h-.025c-18.822 0-34.118 15.293-34.118 34.123v60.695c0 18.83 15.296 34.123 34.118 34.123h.025c18.822 0 34.118-15.293 34.118-34.123V346.18zM436.618 346.18c0-18.83-15.296-34.123-34.118-34.123h-.025c-18.822 0-34.118 15.293-34.118 34.123v60.695c0 18.83 15.296 34.123 34.118 34.123h.025c18.822 0 34.118-15.293 34.118-34.123V346.18zM254.001 633.753h169.16c-69.97-124.67-169.16 0-169.16 0z" fill="#694900"/><ellipse cx="1061.29" cy="1042.47" rx="94.289" ry="94.531" fill="#fff937" transform="translate(-733.71 -881.937)"/><path d="M327.581 255.063v-94.53h94.29c0 52.17-42.25 94.53-94.29 94.53zm0-94.53h-94.29c0-52.17 42.25-94.53 94.29-94.53v94.53z" fill="#ffaa37"/></svg>